Coordinates
version=1
nRows=60
nColumns=12
inDegrees=yes

Units are S.I. units (second, meters, Newtons, ...)
Angles are in degrees

endheader
time	SC_y	SC_z	SC_x	AC_y	AC_z	AC_x	GH_y	GH_z	GH_yy	EL_x	PS_y
       0.0              -18.93          28.83          55.94          46.62         -12.11         -15.96          32.26          69.97          136.6          85.89          100.1
   0.02444              -18.94          28.83          55.94          46.62         -12.11         -15.95          32.24          69.96          136.6          85.89          100.1
   0.04888              -18.94          28.83          55.94          46.63         -12.11         -15.95          32.23          69.94          136.6          85.89          100.1
   0.07332              -18.95          28.82          55.93          46.63          -12.1         -15.94          32.21          69.93          136.6          85.89          100.1
   0.09777              -18.95          28.81          55.93          46.63          -12.1         -15.94          32.19          69.92          136.6          85.89          100.1
    0.1222              -18.96          28.81          55.92          46.63          -12.1         -15.94          32.17           69.9          136.6           85.9          100.1
    0.1466              -18.96           28.8          55.92          46.64          -12.1         -15.93          32.15          69.89          136.6           85.9          100.1
    0.1711              -18.97           28.8          55.91          46.64          -12.1         -15.93          32.13          69.87          136.6           85.9          100.1
    0.1955              -18.98          28.79          55.91          46.65          -12.1         -15.92           32.1          69.85          136.6           85.9          100.1
      0.22              -18.98          28.78           55.9          46.65          -12.1         -15.91          32.08          69.83          136.6           85.9          100.1
    0.2444              -18.99          28.77           55.9          46.66          -12.1         -15.91          32.05          69.81          136.5           85.9          100.1
    0.2689               -19.0          28.77          55.89          46.66         -12.09          -15.9          32.02          69.79          136.5           85.9          100.1
    0.2933              -19.01          28.76          55.88          46.67         -12.09         -15.89          31.99          69.77          136.5           85.9          100.1
    0.3177              -19.02          28.75          55.88          46.67         -12.09         -15.89          31.95          69.74          136.5          85.91          100.1
    0.3422              -19.03          28.73          55.87          46.68         -12.09         -15.88          31.91          69.72          136.5          85.91          100.2
    0.3666              -19.04          28.72          55.86          46.69         -12.09         -15.87          31.87          69.69          136.5          85.91          100.2
    0.3911              -19.06          28.71          55.85          46.69         -12.08         -15.86          31.83          69.65          136.4          85.91          100.2
    0.4155              -19.07           28.7          55.84           46.7         -12.08         -15.85          31.78          69.62          136.4          85.91          100.2
    0.4399              -19.08          28.68          55.82          46.71         -12.08         -15.83          31.72          69.58          136.4          85.92          100.2
    0.4644               -19.1          28.66          55.81          46.72         -12.08         -15.82          31.66          69.54          136.4          85.92          100.2
    0.4888              -19.12          28.64           55.8          46.73         -12.07         -15.81           31.6          69.49          136.3          85.92          100.2
    0.5133              -19.14          28.62          55.78          46.74         -12.07         -15.79          31.53          69.44          136.3          85.93          100.2
    0.5377              -19.16           28.6          55.76          46.76         -12.07         -15.77          31.45          69.39          136.3          85.93          100.3
    0.5622              -19.19          28.58          55.74          46.77         -12.06         -15.75          31.36          69.32          136.2          85.93          100.3
    0.5866              -19.21          28.55          55.72          46.79         -12.06         -15.73          31.27          69.25          136.2          85.94          100.3
     0.611              -19.24          28.52           55.7          46.81         -12.05         -15.71          31.16          69.18          136.1          85.94          100.3
    0.6355              -19.28          28.48          55.67          46.83         -12.04         -15.68          31.04          69.09          136.1          85.95          100.3
    0.6599              -19.32          28.45          55.64          46.85         -12.04         -15.65           30.9          68.99          136.0          85.96          100.4
    0.6844              -19.36           28.4          55.61          46.88         -12.03         -15.61          30.75          68.88          135.9          85.96          100.4
    0.7088              -19.41          28.35          55.57          46.91         -12.02         -15.57          30.57          68.76          135.9          85.97          100.4
    0.7332              -19.47          28.29          55.53          46.94         -12.01         -15.53          30.38          68.62          135.8          85.98          100.5
    0.7577              -19.53          28.23          55.47          46.98          -12.0         -15.48          30.15          68.45          135.7          85.99          100.5
    0.7821               -19.6          28.15          55.42          47.03         -11.99         -15.42          29.88          68.26          135.5          86.01          100.6
    0.8066              -19.69          28.07          55.35          47.08         -11.97         -15.35          29.58          68.05          135.4          86.02          100.7
     0.831              -19.79          27.96          55.27          47.14         -11.95         -15.26          29.22          67.79          135.2          86.04          100.7
    0.8555              -19.91          27.84          55.17          47.21         -11.93         -15.17           28.8          67.49          135.0          86.06          100.8
    0.8799              -20.05           27.7          55.06           47.3          -11.9         -15.05           28.3          67.13          134.8          86.08          100.9
    0.9043              -20.22          27.53          54.93           47.4         -11.87         -14.92          27.69           66.7          134.5          86.11          101.1
    0.9288              -20.43          27.32          54.77          47.52         -11.84         -14.75          26.97          66.18          134.2          86.14          101.2
    0.9532              -20.68          27.06          54.57          47.68         -11.79         -14.55          26.08          65.54          133.8          86.19          101.4
    0.9777              -20.99          26.75          54.33          47.86         -11.73          -14.3          24.98          64.75          133.3          86.24          101.7
     1.002              -21.38          26.35          54.02           48.1         -11.66         -13.99          23.61          63.77          132.6          86.31          102.0
     1.027              -21.86          25.86          53.64          48.39         -11.58          -13.6          21.89          62.54          131.8          86.39          102.3
     1.051              -22.48          25.23          53.15          48.77         -11.46          -13.1           19.7          60.97          130.8          86.49          102.8
     1.075              -23.28          24.43          52.53          49.25         -11.32         -12.46          16.89          58.96          129.5          86.63          103.4
       1.1              -24.29           23.4          51.73          49.86         -11.14         -11.64          13.29          56.39          127.8           86.8          104.2
     1.124              -25.59          22.08          50.71          50.65          -10.9          -10.6          8.697          53.09          125.7          87.02          105.2
     1.149              -27.23          20.42          49.43          51.64         -10.61          -9.28          2.917          48.96          123.0           87.3          106.4
     1.173              -29.22           18.4          47.86          52.84         -10.24         -7.677         -4.126          43.91          119.7          87.63          108.0
     1.198              -31.53          16.06          46.05          54.24         -9.827          -5.82         -12.29          38.07          115.9          88.02          109.7
     1.222              -34.03          13.52          44.08          55.75         -9.374         -3.809         -21.13          31.74          111.8          88.45          111.6
     1.247              -36.53          10.99          42.12          57.26         -8.922         -1.797         -29.97          25.41          107.7          88.87          113.6
     1.271              -38.84          8.649          40.31          58.65         -8.504        0.06024         -38.14          19.56          103.9          89.26          115.3
     1.295              -40.83          6.629          38.74          59.86         -8.144          1.663         -45.18          14.52          100.6           89.6          116.9
      1.32              -42.46          4.972          37.46          60.85         -7.848          2.978         -50.96          10.38          97.96          89.87          118.1
     1.344              -43.76          3.654          36.44          61.63         -7.612          4.024         -55.56          7.086          95.82          90.09          119.1
     1.369              -44.78          2.622          35.64          62.25         -7.428          4.842         -59.16          4.509          94.15          90.27          119.9
     1.393              -45.57          1.818          35.02          62.73         -7.285           5.48         -61.96          2.501          92.84           90.4          120.5
     1.418              -46.19          1.189          34.53           63.1         -7.173          5.979         -64.15         0.9322          91.83           90.5          121.0
     1.442              -46.68         0.6953          34.15          63.39         -7.084          6.371         -65.88        -0.3018          91.02          90.59          121.3
